<svg width="52" height="52" viewBox="0 0 52 52" fill="none" xmlns="http://www.w3.org/2000/svg">
<g clip-path="url(#clip0)">
<path d="M9.35142 0.358887C4.17115 0.358887 0 4.53003 0 9.71031V42.2218C0 47.4021 4.17115 51.5732 9.35142 51.5732H26.9724V31.5516H21.6781V24.3432H26.9724V18.1847C26.9724 13.3462 30.1005 8.90368 37.3064 8.90368C40.224 8.90368 42.3815 9.18377 42.3815 9.18377L42.2118 15.9153C42.2118 15.9153 40.0115 15.8945 37.6105 15.8945C35.0119 15.8945 34.5952 17.0918 34.5952 19.0794V24.3433H42.4182L42.0774 31.5517H34.5952V51.5733H41.8629C47.0431 51.5733 51.2143 47.4021 51.2143 42.2219V9.71036C51.2143 4.53009 47.0431 0.358938 41.8629 0.358938H9.35137L9.35142 0.358887Z" fill="white"/>
</g>
<defs>
<clipPath id="clip0">
<rect width="51.2143" height="51.2143" fill="white" transform="translate(0 0.358887)"/>
</clipPath>
</defs>
</svg>
