<svg width="55" height="51" viewBox="0 0 55 51" fill="none" xmlns="http://www.w3.org/2000/svg">
<path d="M27.7117 19.2052C26.3978 19.2052 25.1133 19.575 24.0209 20.2679C22.9284 20.9607 22.0769 21.9455 21.5741 23.0977C21.0712 24.2499 20.9397 25.5177 21.196 26.7409C21.4523 27.964 22.0851 29.0876 23.0141 29.9694C23.9432 30.8513 25.127 31.4518 26.4156 31.6951C27.7043 31.9384 29.0401 31.8135 30.254 31.3363C31.4679 30.859 32.5054 30.0509 33.2354 29.0139C33.9654 27.977 34.355 26.7579 34.355 25.5107C34.355 24.6827 34.1832 23.8627 33.8493 23.0977C33.5155 22.3327 33.0261 21.6376 32.4092 21.0521C31.7923 20.4665 31.06 20.0021 30.254 19.6852C29.448 19.3683 28.5841 19.2052 27.7117 19.2052ZM54.3118 12.976C54.2977 11.0125 53.9168 9.06696 53.1867 7.22978C52.649 5.88543 51.8171 4.66458 50.7459 3.64779C49.6746 2.63101 48.3884 1.84139 46.972 1.33106C45.0364 0.638119 42.9866 0.27656 40.918 0.263184C37.4624 0.0852049 36.4445 0.0852051 27.7117 0.0852051C18.9789 0.0852051 17.961 0.0852049 14.5054 0.263184C12.4367 0.27656 10.387 0.638119 8.45139 1.33106C7.03502 1.84139 5.74877 2.63101 4.67751 3.64779C3.60625 4.66458 2.77434 5.88543 2.23667 7.22978C1.50661 9.06696 1.12568 11.0125 1.11159 12.976C0.924072 16.2558 0.924072 17.222 0.924072 25.5107C0.924072 33.7995 0.924072 34.7656 1.11159 38.0455C1.14042 40.0159 1.52083 41.9674 2.23667 43.8171C2.77196 45.1553 3.60318 46.3691 4.67434 47.3767C5.741 48.3996 7.03001 49.1892 8.45139 49.6904C10.387 50.3834 12.4367 50.7449 14.5054 50.7583C17.961 50.9363 18.9789 50.9363 27.7117 50.9363C36.4445 50.9363 37.4624 50.9363 40.918 50.7583C42.9866 50.7449 45.0364 50.3834 46.972 49.6904C48.3934 49.1892 49.6824 48.3996 50.749 47.3767C51.8202 46.3691 52.6514 45.1553 53.1867 43.8171C53.9161 41.9709 54.2969 40.0172 54.3118 38.0455C54.4993 34.7656 54.4993 33.7995 54.4993 25.5107C54.4993 17.222 54.4993 16.2558 54.3118 12.976ZM47.5077 33.3164C47.4218 34.8854 47.069 36.4309 46.463 37.893C45.943 39.1126 45.1699 40.2205 44.1897 41.1509C43.2095 42.0812 42.0422 42.815 40.7573 43.3086C39.2023 43.8517 37.5649 44.1522 35.9087 44.1985H19.5147C17.8585 44.1522 16.2211 43.8517 14.6661 43.3086C13.3377 42.8401 12.1381 42.0926 11.1569 41.122C10.1863 40.2099 9.43676 39.108 8.96036 37.893C8.38592 36.4186 8.07799 34.8627 8.04958 33.291V25.5107V17.7305C8.07799 16.1588 8.38592 14.6029 8.96036 13.1285C9.454 11.8677 10.2415 10.729 11.2641 9.79776C12.2293 8.88148 13.3891 8.17076 14.6661 7.71287C16.2211 7.16979 17.8585 6.86927 19.5147 6.82297H35.9087C37.5649 6.86927 39.2023 7.16979 40.7573 7.71287C42.0857 8.18141 43.2853 8.92891 44.2664 9.89946C45.237 10.8116 45.9866 11.9135 46.463 13.1285C47.0352 14.6044 47.3518 16.1585 47.4006 17.7305V25.5107C47.4006 30.7484 47.5881 31.2823 47.5077 33.291V33.3164ZM43.2217 14.3998C42.9028 13.5785 42.3999 12.8327 41.7478 12.2137C41.0957 11.5948 40.3099 11.1175 39.4447 10.8148C38.2566 10.4239 37.0052 10.2345 35.748 10.2554H19.6754C18.4117 10.2671 17.1602 10.4909 15.9787 10.9165C15.1267 11.2055 14.3492 11.6633 13.698 12.2595C13.0467 12.8557 12.5367 13.5766 12.2017 14.3744C11.8126 15.5067 11.6226 16.6921 11.6391 17.8831V33.1384C11.6657 34.3364 11.901 35.522 12.3356 36.6471C12.6545 37.4684 13.1574 38.2143 13.8095 38.8332C14.4616 39.4521 15.2474 39.9294 16.1127 40.2321C17.2556 40.6311 18.4583 40.8543 19.6754 40.8932H35.748C37.0116 40.8815 38.2631 40.6577 39.4447 40.2321C40.3099 39.9294 41.0957 39.4521 41.7478 38.8332C42.3999 38.2143 42.9028 37.4684 43.2217 36.6471C43.6701 35.5257 43.9058 34.3378 43.9182 33.1384V25.5107V17.8831C43.919 16.6825 43.6827 15.4924 43.2217 14.3744V14.3998ZM27.7117 35.2233C26.3692 35.2233 25.0398 34.9719 23.7998 34.4835C22.5598 33.9951 21.4335 33.2793 20.4854 32.377C19.5373 31.4748 18.7861 30.4039 18.2748 29.2257C17.7635 28.0474 17.5021 26.785 17.5056 25.5107C17.5056 23.5887 18.1064 21.7099 19.232 20.1121C20.3576 18.5143 21.9574 17.2695 23.8287 16.5351C25.7001 15.8007 27.759 15.6099 29.7447 15.9867C31.7304 16.3635 33.5537 17.2911 34.9837 18.652C36.4137 20.0128 37.3862 21.7458 37.778 23.6316C38.1698 25.5173 37.9633 27.4709 37.1847 29.2452C36.4061 31.0195 35.0904 32.5346 33.404 33.5988C31.7177 34.663 29.7367 35.2283 27.7117 35.2233ZM38.4267 17.7051C37.8346 17.6456 37.2866 17.3802 36.8883 16.9601C36.49 16.5399 36.2696 15.9947 36.2696 15.4295C36.2696 14.8643 36.49 14.3191 36.8883 13.899C37.2866 13.4788 37.8346 13.2134 38.4267 13.1539C39.0189 13.2134 39.5669 13.4788 39.9652 13.899C40.3635 14.3191 40.5839 14.8643 40.5839 15.4295C40.5839 15.9947 40.3635 16.5399 39.9652 16.9601C39.5669 17.3802 39.0189 17.6456 38.4267 17.7051Z" fill="white"/>
</svg>
