<svg width="108" height="108" viewBox="0 0 108 108" fill="none" xmlns="http://www.w3.org/2000/svg">
<path d="M74.25 40.5C74.25 45.8706 72.1165 51.0213 68.3189 54.8189C64.5213 58.6165 59.3706 60.75 54 60.75C48.6294 60.75 43.4787 58.6165 39.6811 54.8189C35.8835 51.0213 33.75 45.8706 33.75 40.5C33.75 35.1294 35.8835 29.9787 39.6811 26.1811C43.4787 22.3835 48.6294 20.25 54 20.25C59.3706 20.25 64.5213 22.3835 68.3189 26.1811C72.1165 29.9787 74.25 35.1294 74.25 40.5Z" fill="#04101B"/>
<path fill-rule="evenodd" clip-rule="evenodd" d="M0 54C0 39.6783 5.68927 25.9432 15.8162 15.8162C25.9432 5.68927 39.6783 0 54 0C68.3217 0 82.0568 5.68927 92.1838 15.8162C102.311 25.9432 108 39.6783 108 54C108 68.3217 102.311 82.0568 92.1838 92.1838C82.0568 102.311 68.3217 108 54 108C39.6783 108 25.9432 102.311 15.8162 92.1838C5.68927 82.0568 0 68.3217 0 54ZM54 6.75C45.102 6.75047 36.385 9.26345 28.8522 13.9997C21.3195 18.7359 15.2772 25.5029 11.4208 33.5218C7.56436 41.5407 6.05061 50.4855 7.05374 59.3268C8.05687 68.1681 11.5361 76.5464 17.091 83.4975C21.8835 75.7755 32.4338 67.5 54 67.5C75.5662 67.5 86.1097 75.7688 90.909 83.4975C96.4639 76.5464 99.9431 68.1681 100.946 59.3268C101.949 50.4855 100.436 41.5407 96.5792 33.5218C92.7228 25.5029 86.6805 18.7359 79.1478 13.9997C71.615 9.26345 62.898 6.75047 54 6.75Z" fill="#04101B"/>
</svg>
