<svg width="55" height="55" viewBox="0 0 55 55" fill="none" xmlns="http://www.w3.org/2000/svg">
<circle cx="27.5" cy="27.5" r="26" stroke="white" stroke-width="3"/>
<path d="M33.4685 42.1652H33.5081C34.2561 42.1652 34.9631 41.8705 35.4986 41.335L39.3406 37.493C39.4722 37.3616 39.5767 37.2054 39.648 37.0336C39.7192 36.8617 39.7559 36.6775 39.7559 36.4914C39.7559 36.3054 39.7192 36.1211 39.648 35.9493C39.5767 35.7774 39.4722 35.6213 39.3406 35.4898L33.6739 29.8232C33.5424 29.6915 33.3863 29.587 33.2145 29.5158C33.0426 29.4445 32.8584 29.4078 32.6723 29.4078C32.4863 29.4078 32.302 29.4445 32.1302 29.5158C31.9583 29.587 31.8022 29.6915 31.6707 29.8232L29.4126 32.0813C28.3656 31.7697 26.4121 31.0613 25.1739 29.8232C23.9357 28.585 23.2274 26.6314 22.9157 25.5845L25.1739 23.3263C25.3056 23.1949 25.41 23.0388 25.4813 22.8669C25.5526 22.695 25.5893 22.5108 25.5893 22.3248C25.5893 22.1387 25.5526 21.9545 25.4813 21.7826C25.41 21.6107 25.3056 21.4546 25.1739 21.3232L19.5072 15.6565C19.2364 15.4009 18.8781 15.2585 18.5056 15.2585C18.1332 15.2585 17.7749 15.4009 17.5041 15.6565L13.6635 19.4985C13.1251 20.0368 12.822 20.7763 12.8333 21.5314C12.8659 23.5488 13.4 30.5556 18.9221 36.0778C24.4443 41.5999 31.4511 42.1326 33.4685 42.1652ZM18.5071 18.6613L22.1706 22.3248L20.3388 24.1565C20.1721 24.3227 20.0497 24.528 19.9826 24.7537C19.9156 24.9794 19.906 25.2182 19.9549 25.4485C19.9889 25.6114 20.8205 29.4747 23.1721 31.8263C25.5238 34.178 29.3871 35.0096 29.55 35.0436C29.7803 35.0927 30.0192 35.0833 30.2449 35.0162C30.4706 34.9492 30.6759 34.8266 30.842 34.6597L32.6737 32.8279L36.3372 36.4914L33.4954 39.3318C31.7274 39.3021 25.6782 38.8275 20.9253 34.0732C16.1568 29.3047 15.695 23.2343 15.6666 21.5017L18.5071 18.6613ZM38.3319 26.5818H41.1652C41.1652 19.3143 35.6785 13.8333 28.4011 13.8333V16.6666C34.1556 16.6666 38.3319 20.8358 38.3319 26.5818Z" fill="white"/>
<path d="M28.4153 22.3333C31.3945 22.3333 32.6653 23.6041 32.6653 26.5833H35.4986C35.4986 22.0146 32.984 19.5 28.4153 19.5V22.3333Z" fill="white"/>
</svg>
