<svg width="43" height="31" viewBox="0 0 43 31" fill="none" xmlns="http://www.w3.org/2000/svg">
<path d="M10.6558 22.2373L7.9378 18.3673C7.6018 18.3913 7.3378 18.4033 7.1458 18.4033H4.0318V22.2373H2.2318V9.6373H7.1458C8.7778 9.6373 10.0618 10.0273 10.9978 10.8073C11.9338 11.5873 12.4018 12.6613 12.4018 14.0293C12.4018 15.0013 12.1618 15.8293 11.6818 16.5133C11.2018 17.1973 10.5178 17.6953 9.6298 18.0073L12.6178 22.2373H10.6558ZM7.0918 16.8733C8.2318 16.8733 9.1018 16.6273 9.7018 16.1353C10.3018 15.6433 10.6018 14.9413 10.6018 14.0293C10.6018 13.1173 10.3018 12.4213 9.7018 11.9413C9.1018 11.4493 8.2318 11.2033 7.0918 11.2033H4.0318V16.8733H7.0918ZM20.5299 22.3813C18.8499 22.3813 17.5419 21.9013 16.6059 20.9413C15.6699 19.9813 15.2019 18.6013 15.2019 16.8013V9.6373H17.0019V16.7293C17.0019 19.4293 18.1839 20.7793 20.5479 20.7793C21.6999 20.7793 22.5819 20.4493 23.1939 19.7893C23.8059 19.1173 24.1119 18.0973 24.1119 16.7293V9.6373H25.8579V16.8013C25.8579 18.6133 25.3899 19.9993 24.4539 20.9593C23.5179 21.9073 22.2099 22.3813 20.5299 22.3813Z" fill="#FFEBEB"/>
<path d="M31 12L36.5 17.5L42 12" stroke="#FFEBEB" stroke-width="2"/>
</svg>
