<svg width="131" height="130" viewBox="0 0 131 130" fill="none" xmlns="http://www.w3.org/2000/svg">
<circle cx="65.5" cy="65" r="65" fill="#0266FC"/>
<path d="M35.4702 71.7817C35.5682 72.1517 35.7385 72.4986 35.9713 72.8025C36.2041 73.1064 36.4947 73.3611 36.8265 73.5521L42.3973 76.7721V83.1858C42.3973 83.9594 42.7046 84.7012 43.2516 85.2482C43.7986 85.7952 44.5404 86.1025 45.314 86.1025H51.7277L54.9477 91.6733C55.206 92.1147 55.5746 92.4813 56.0175 92.737C56.4604 92.9927 56.9622 93.1287 57.4736 93.1317C57.9811 93.1317 58.4857 92.9975 58.9348 92.7379L64.4998 89.5208L70.0707 92.7408C70.7404 93.127 71.5359 93.2319 72.2829 93.0323C73.0298 92.8327 73.667 92.345 74.0548 91.6762L77.2719 86.1054H83.6857C84.4592 86.1054 85.2011 85.7981 85.7481 85.2511C86.295 84.7042 86.6023 83.9623 86.6023 83.1887V76.775L92.1732 73.555C92.505 73.3632 92.7958 73.108 93.0289 72.8037C93.262 72.4995 93.4329 72.1524 93.5318 71.7821C93.6306 71.4118 93.6556 71.0257 93.6051 70.6457C93.5547 70.2658 93.4298 69.8996 93.2377 69.5679L90.0207 64L93.2407 58.435C93.6277 57.7655 93.7329 56.9696 93.5333 56.2225C93.3336 55.4754 92.8455 54.8381 92.1761 54.4508L86.6052 51.2308V44.8142C86.6052 44.0406 86.298 43.2987 85.751 42.7518C85.204 42.2048 84.4621 41.8975 83.6886 41.8975H77.2748L74.0577 36.3296C73.6692 35.6614 73.0332 35.1731 72.2873 34.9704C71.9174 34.8701 71.5312 34.8443 71.1512 34.8943C70.7712 34.9444 70.4049 35.0694 70.0736 35.2621L64.4998 38.4792L58.9319 35.2592C58.2624 34.8722 57.4665 34.7669 56.7194 34.9665C55.9723 35.1662 55.335 35.6544 54.9477 36.3237L51.7277 41.8946H45.314C44.5404 41.8946 43.7986 42.2019 43.2516 42.7488C42.7046 43.2958 42.3973 44.0377 42.3973 44.8112V51.225L36.8265 54.445C36.1573 54.8339 35.6695 55.4722 35.47 56.2201C35.2704 56.9679 35.3754 57.7644 35.7619 58.435L38.9819 64L35.7619 69.565C35.3769 70.2367 35.2721 71.0332 35.4702 71.7817ZM64.4998 66.9167C54.3498 66.9167 52.8332 61.4362 52.8332 58.1667C52.8332 54.4129 55.8344 50.6329 61.5832 49.6646V46.535H67.4165V49.7696C72.474 50.9654 74.4165 55.1742 74.4165 58.1667H71.4998L68.5832 58.2192C68.5423 57.1108 67.9561 55.25 64.4998 55.25C60.7111 55.25 58.6665 56.7521 58.6665 58.1667C58.6665 59.2575 58.6665 61.0833 64.4998 61.0833C74.6498 61.0833 76.1665 66.5637 76.1665 69.8333C76.1665 73.5871 73.1652 77.3671 67.4165 78.3354V81.5H61.5832V78.35C54.7611 77.2796 52.8332 72.5079 52.8332 69.8333H58.6665C58.6986 70.2504 59.1302 72.75 64.4998 72.75C68.5248 72.75 70.3332 71.0437 70.3332 69.8333C70.3332 68.8854 70.3332 66.9167 64.4998 66.9167Z" fill="white"/>
</svg>
