<svg width="131" height="130" viewBox="0 0 131 130" fill="none" xmlns="http://www.w3.org/2000/svg">
<circle cx="65.5" cy="65" r="65" fill="#0266FC"/>
<g clip-path="url(#clip0)">
<path d="M74.5001 43.0417V86.947C74.5001 90.0013 70.8904 91.622 68.6067 89.5933L55.8794 78.277C55.4909 77.9308 54.9888 77.7393 54.4684 77.7387H44.0417C42.3515 77.7387 40.7304 77.0674 39.5349 75.8725C38.3395 74.6775 37.6675 73.0568 37.6667 71.3665V58.625C37.6667 56.9342 38.3384 55.3127 39.5339 54.1172C40.7295 52.9216 42.351 52.25 44.0417 52.25H54.4684C54.9888 52.2494 55.4909 52.0578 55.8794 51.7117L68.6039 40.3982C70.8904 38.3638 74.5001 39.9817 74.5001 43.0417ZM85.8107 47.7082C86.0351 47.5422 86.29 47.4221 86.5608 47.3546C86.8315 47.2871 87.113 47.2737 87.389 47.315C87.665 47.3563 87.9301 47.4516 88.1693 47.5953C88.4085 47.7391 88.617 47.9286 88.7829 48.153C92.3959 53.026 94.3423 58.9337 94.3334 65C94.3413 71.0666 92.3939 76.9742 88.7801 81.847C88.4377 82.2797 87.9405 82.5624 87.3935 82.6351C86.8465 82.7078 86.2927 82.5648 85.8492 82.2365C85.4057 81.9082 85.1073 81.4203 85.0171 80.8759C84.9269 80.3316 85.052 79.7735 85.3659 79.3197C88.4379 75.1782 90.0923 70.1564 90.0834 65C90.0923 59.8436 88.4379 54.8218 85.3659 50.6803C85.2 50.456 85.0798 50.2011 85.0124 49.9303C84.9449 49.6595 84.9314 49.3781 84.9728 49.1021C85.0141 48.8261 85.1093 48.561 85.2531 48.3218C85.3969 48.0826 85.5864 47.8741 85.8107 47.7082ZM80.5719 54.715C80.8175 54.582 81.0868 54.4987 81.3645 54.4699C81.6423 54.4411 81.923 54.4673 82.1906 54.547C82.4582 54.6268 82.7075 54.7585 82.9242 54.9346C83.1408 55.1107 83.3207 55.3278 83.4534 55.5735C84.9721 58.3785 85.8334 61.5943 85.8334 65.0028C85.8381 68.2951 85.02 71.5364 83.4534 74.4322C83.3206 74.6777 83.1407 74.8947 82.924 75.0708C82.7073 75.2468 82.458 75.3785 82.1905 75.4582C81.9229 75.5379 81.6422 75.5641 81.3645 75.5354C81.0868 75.5066 80.8175 75.4235 80.5719 75.2907C80.3263 75.1578 80.1093 74.9779 79.9333 74.7612C79.7572 74.5445 79.6256 74.2953 79.5459 74.0277C79.4662 73.7601 79.4399 73.4795 79.4687 73.2018C79.4974 72.9241 79.5806 72.6547 79.7134 72.4092C80.9034 70.2077 81.5834 67.6888 81.5834 65.0028C81.5834 62.3168 80.9034 59.798 79.7134 57.5965C79.5804 57.3509 79.4972 57.0816 79.4684 56.8039C79.4395 56.5261 79.4657 56.2454 79.5455 55.9778C79.6252 55.7102 79.7569 55.4609 79.933 55.2442C80.1091 55.0276 80.3262 54.8477 80.5719 54.715Z" fill="white"/>
</g>
<defs>
<clipPath id="clip0">
<rect width="70" height="70" fill="white" transform="translate(29.5 29)"/>
</clipPath>
</defs>
</svg>
