<svg width="131" height="131" viewBox="0 0 131 131" fill="none" xmlns="http://www.w3.org/2000/svg">
<circle cx="65.5" cy="65.5" r="65" fill="#0266FC"/>
<path d="M64.4999 35.3333C53.2124 35.3333 44.0833 44.4625 44.0833 55.75C44.0833 71.0625 64.4999 93.6667 64.4999 93.6667C64.4999 93.6667 84.9166 71.0625 84.9166 55.75C84.9166 44.4625 75.7874 35.3333 64.4999 35.3333ZM64.4999 63.0416C62.566 63.0416 60.7114 62.2734 59.3439 60.906C57.9765 59.5385 57.2083 57.6839 57.2083 55.75C57.2083 53.8161 57.9765 51.9614 59.3439 50.594C60.7114 49.2265 62.566 48.4583 64.4999 48.4583C66.4338 48.4583 68.2885 49.2265 69.6559 50.594C71.0234 51.9614 71.7916 53.8161 71.7916 55.75C71.7916 57.6839 71.0234 59.5385 69.6559 60.906C68.2885 62.2734 66.4338 63.0416 64.4999 63.0416Z" fill="white"/>
</svg>
