<svg width="55" height="55" viewBox="0 0 55 55" fill="none" xmlns="http://www.w3.org/2000/svg">
<circle cx="27.5" cy="27.5" r="26" stroke="white" stroke-width="3"/>
<path d="M27.1501 11C24.4202 11.0397 18.5552 11.4873 15.2784 14.4949C12.8446 16.9316 11.9861 20.4917 11.8968 24.9074C11.8076 29.3218 11.6914 37.5993 19.6701 39.8433H19.6743L19.6687 43.266C19.6687 43.266 19.6162 44.6501 20.5328 44.9334C21.6336 45.2762 22.281 44.2251 23.3378 43.0889C23.9144 42.4656 24.7148 41.5532 25.3169 40.8506C30.7711 41.3124 34.9672 40.2612 35.4461 40.1068C36.5454 39.7498 42.7787 38.9508 43.7931 30.6761C44.8414 22.1477 43.2831 16.7502 40.4781 14.3192C39.6337 13.5401 36.2196 11.0609 28.6135 11.0283C28.6135 11.0283 28.0539 10.9929 27.1444 11.0042L27.1501 11ZM27.2322 13.3984C28.0043 13.3927 28.4789 13.4225 28.4789 13.4225C34.9134 13.4508 37.9947 15.3888 38.7101 16.0377C41.083 18.0706 42.2942 22.934 41.4102 30.0584V30.0612C40.5546 36.9717 35.4971 37.4053 34.5649 37.7042C34.1682 37.8317 30.4821 38.7482 25.8482 38.4465C25.8482 38.4465 22.3972 42.6115 21.3191 43.6938C21.1491 43.8638 20.9507 43.9304 20.8204 43.8978C20.6362 43.8511 20.5852 43.6315 20.5867 43.3113L20.615 37.6192C13.8688 35.7492 14.2612 28.7055 14.3392 25.0179C14.4157 21.3289 15.1084 18.3057 17.1668 16.2728C19.9435 13.7611 24.9217 13.414 27.2393 13.397L27.2322 13.3984ZM27.7706 17.0846C27.6607 17.0901 27.5572 17.1375 27.4811 17.2169C27.4051 17.2964 27.3623 17.4019 27.3616 17.5119C27.3609 17.6218 27.4023 17.7279 27.4772 17.8084C27.5522 17.8888 27.6552 17.9375 27.7649 17.9445C30.0656 17.9587 31.9384 18.7052 33.4712 20.1998C34.9913 21.6817 35.7662 23.6962 35.7847 26.3397C35.7875 26.5763 35.983 26.7647 36.2196 26.7647C36.3328 26.7632 36.4409 26.7171 36.5204 26.6365C36.6 26.5559 36.6446 26.4472 36.6446 26.334C36.6247 23.5233 35.7691 21.2397 34.0719 19.585C32.3861 17.9417 30.2582 17.1016 27.772 17.0846H27.7706ZM22.1606 18.0692C21.8594 18.0275 21.5528 18.0857 21.2879 18.2349L21.2737 18.2378C20.6646 18.5877 20.1177 19.0339 19.6502 19.5581C19.6474 19.5637 19.6417 19.5637 19.6389 19.5694C19.2607 20.027 19.0439 20.4733 18.9872 20.9124C18.9761 20.9779 18.9728 21.0445 18.9773 21.1108C18.9773 21.3034 19.0085 21.4932 19.0694 21.6774L19.0878 21.6916C19.2791 22.3716 19.7579 23.4992 20.7949 25.3806C21.3899 26.4686 22.0742 27.5056 22.8434 28.4774C23.2259 28.9648 23.6367 29.4308 24.0759 29.8714L24.2629 30.0584C24.7021 30.4947 25.1696 30.9084 25.6569 31.2909C26.6295 32.0603 27.6655 32.7461 28.7537 33.3408C30.6351 34.3792 31.7656 34.8567 32.4427 35.0493L32.4569 35.0692C32.7034 35.1497 32.9643 35.1763 33.2219 35.1471C33.6611 35.0961 34.1102 34.8779 34.5649 34.4954C34.5706 34.4954 34.5692 34.4926 34.5762 34.4883C35.1004 34.0208 35.5438 33.4683 35.8937 32.862L35.898 32.8478C36.2167 32.2358 36.1105 31.655 35.643 31.2612C35.6373 31.2612 34.6542 30.4395 34.1739 30.0853C33.6639 29.7241 33.1397 29.3883 32.5972 29.0795C31.8747 28.6757 31.1352 28.9293 30.8292 29.326L30.1959 30.125C29.8701 30.5259 29.2652 30.4735 29.2652 30.4735C24.8452 29.3458 23.6622 24.8706 23.6622 24.8706C23.6622 24.8706 23.6098 24.2671 24.0136 23.9412L24.8112 23.3066C25.2036 23.002 25.4572 22.2625 25.052 21.5386C24.7443 20.995 24.4086 20.4678 24.0462 19.959C23.6657 19.4611 23.2737 18.9723 22.8703 18.4927C22.6927 18.2703 22.4397 18.1206 22.1592 18.072L22.1606 18.0692ZM28.5214 19.3158C28.4076 19.3125 28.297 19.3544 28.2141 19.4325C28.1313 19.5107 28.0828 19.6185 28.0794 19.7323C28.076 19.8462 28.118 19.9567 28.1961 20.0396C28.2742 20.1225 28.3821 20.171 28.4959 20.1743C30.1392 20.2947 31.3533 20.8345 32.243 21.8035C33.1355 22.7782 33.5605 23.9625 33.5265 25.4443C33.5327 25.5533 33.5797 25.6559 33.6582 25.7317C33.7368 25.8075 33.841 25.8508 33.9501 25.8532C34.0592 25.8555 34.1651 25.8166 34.2468 25.7442C34.3285 25.6718 34.3798 25.5713 34.3907 25.4627C34.4261 23.7982 33.9175 22.356 32.8791 21.2212C31.8307 20.0737 30.3617 19.4462 28.5582 19.3144H28.5242L28.5214 19.3158ZM29.1773 21.625C29.0682 21.6266 28.9638 21.6694 28.885 21.7448C28.8061 21.8202 28.7588 21.9227 28.7523 22.0316C28.741 22.2682 28.9223 22.4707 29.1603 22.4849C29.9012 22.5246 30.3999 22.7328 30.7371 23.0828C31.0771 23.4298 31.2867 23.9611 31.3264 24.7317C31.341 24.8386 31.3951 24.936 31.4781 25.0049C31.561 25.0737 31.6668 25.109 31.7744 25.1036C31.8821 25.0983 31.9839 25.0527 32.0596 24.976C32.1353 24.8993 32.1795 24.797 32.1835 24.6892C32.141 23.7769 31.8789 23.0204 31.3618 22.4835C30.8419 21.948 30.0967 21.6703 29.2085 21.6236H29.183L29.1773 21.625Z" fill="white"/>
</svg>
