<svg width="52" height="52" viewBox="0 0 52 52" fill="none" xmlns="http://www.w3.org/2000/svg">
<g clip-path="url(#clip0)">
<path d="M10.0481 0.363037C4.52831 0.363037 0.0117188 4.87962 0.0117188 10.3994V41.5474C0.0117188 47.0672 4.52831 51.5838 10.0481 51.5838H41.196C46.7159 51.5838 51.2325 47.0672 51.2325 41.5474V10.3994C51.2325 4.87962 46.7159 0.363037 41.196 0.363037H10.0481ZM15.7938 11.9198H25.8974C27.9957 11.9198 29.5896 11.9966 30.6715 12.1615C31.7534 12.3182 32.7697 12.654 33.7139 13.165C34.7358 13.7155 35.5034 14.4568 36.009 15.3752C36.5145 16.299 36.7708 17.3608 36.7708 18.5681C36.7708 19.9634 36.4227 21.2037 35.7209 22.2924C35.026 23.3811 34.0616 24.1817 32.8353 24.6994V24.8483C34.5998 25.223 36.0151 25.9768 37.0765 27.1241C38.1396 28.2728 38.6706 29.8189 38.6706 31.7606C38.6706 33.1818 38.4023 34.4354 37.8639 35.5105C37.3258 36.5856 36.6052 37.4715 35.6937 38.18C34.6186 39.0248 33.4386 39.621 32.1456 39.9821C30.8606 40.3419 29.2284 40.5215 27.2418 40.5215H15.7938V11.9199L15.7938 11.9198ZM22.9397 17.1629V23.2158H23.844C25.0703 23.2158 25.9368 23.2032 26.4287 23.1774C26.9206 23.1516 27.4326 23.0198 27.9572 22.7773C28.5267 22.5089 28.9278 22.1362 29.1431 21.6634C29.3597 21.1851 29.4711 20.6328 29.4711 20.0101C29.4711 19.5455 29.3529 19.0724 29.1158 18.5873C28.8801 18.1022 28.5139 17.7477 28.0083 17.531C27.5368 17.3212 26.9794 17.2106 26.3295 17.1902C25.6809 17.1697 24.7171 17.163 23.439 17.163H22.9397L22.9397 17.1629ZM22.9397 28.1148V35.2752H23.3271C25.1965 35.2752 26.4878 35.2611 27.2017 35.2352C27.9157 35.2094 28.6513 35.0398 29.3912 34.7182C30.0479 34.4362 30.5195 34.0229 30.822 33.4779C31.1231 32.9342 31.2733 32.3175 31.2733 31.6293C31.2733 30.7437 31.0983 30.0555 30.7372 29.5568C30.3774 29.0526 29.8393 28.6782 29.1239 28.4221C28.6906 28.2517 28.0869 28.1594 27.3266 28.1404C26.5663 28.1213 25.5444 28.1148 24.265 28.1148H22.9398H22.9397Z" fill="white"/>
</g>
<defs>
<clipPath id="clip0">
<rect width="51.2143" height="51.2143" fill="white" transform="translate(0.0078125 0.358887)"/>
</clipPath>
</defs>
</svg>
